<?xml version="1.0" encoding="utf-8"?>
<!-- Generator: Adobe Illustrator 25.4.1, SVG Export Plug-In . SVG Version: 6.00 Build 0)  -->
<svg version="1.1" id="Livello_1" xmlns="http://www.w3.org/2000/svg" xmlns:xlink="http://www.w3.org/1999/xlink" x="0px" y="0px"
	 viewBox="0 0 177 132.7" style="enable-background:new 0 0 177 132.7;" xml:space="preserve">
<style type="text/css">
	.st0{fill:#FFFFFF;}
</style>
<g>
	<path class="st0" d="M88.4,132.7c-23.8,0-47.6,0-71.4,0c-8.5,0-15.1-5.5-16.7-13.8C0,118,0,117,0,116c0-33.1,0-66.2,0-99.4
		C0,7.3,7.3,0,16.6,0c47.9,0,95.8,0,143.8,0c9.3,0,16.6,7.3,16.6,16.5c0,33.2,0,66.5,0,99.7c0,9.2-7.3,16.5-16.6,16.5
		C136.4,132.8,112.4,132.7,88.4,132.7z M165.4,24c-0.8,0.6-1.5,1.2-2.2,1.9c-4.7,4.1-9.5,8.2-14.2,12.3
		c-18.6,16.1-37.2,32.2-55.8,48.3c-3.3,2.9-6,2.9-9.3,0c-4.7-4.1-9.4-8.1-14.1-12.2C52.7,59.5,35.7,44.7,18.6,30
		c-2.3-2-4.7-4-7.3-6.3c0,1,0,1.6,0,2.1c0,29.5,0,59,0,88.5c0,5.2,1.9,7.1,7.1,7.1c46.8,0,93.5,0,140.3,0c5.1,0,7-2,7-7
		c0-29.6,0-59.1,0-88.7C165.7,25.2,165.9,24.6,165.4,24z M161.8,11.9C159.7,11,17,11.1,15.2,11.9c0.5,0.4,0.8,0.7,1.2,1
		c3.9,3.3,7.8,6.7,11.6,10c19.7,17.1,39.5,34.2,59.2,51.3c1,0.9,1.6,0.8,2.6,0c4.8-4.3,9.7-8.4,14.6-12.7
		c15.3-13.2,30.5-26.4,45.8-39.6C154,18.6,157.8,15.3,161.8,11.9z"/>
</g>
</svg>
