<?xml version="1.0" encoding="utf-8"?>
<!-- Generator: Adobe Illustrator 25.4.1, SVG Export Plug-In . SVG Version: 6.00 Build 0)  -->
<svg version="1.1" id="Livello_1" xmlns="http://www.w3.org/2000/svg" xmlns:xlink="http://www.w3.org/1999/xlink" x="0px" y="0px"
	 viewBox="0 0 595.3 99.6" style="enable-background:new 0 0 595.3 99.6;" xml:space="preserve">
<style type="text/css">
	.st0{fill:#FFFFFF;}
</style>
<path class="st0" d="M532.8,18.5V83c0,2.4-0.5,4.6-1.4,6.6s-2.2,3.8-3.8,5.3s-3.6,2.7-5.8,3.5c-2.2,0.9-4.6,1.3-7.1,1.3
	c-1.1,0-2,0-2.9-0.1c-0.8-0.1-1.6-0.2-2.3-0.4c-0.7-0.2-1.4-0.5-2.1-0.9s-1.5-0.8-2.3-1.4v-4.2c1.1,0.4,2.2,0.7,3.3,0.9
	s1.9,0.3,2.6,0.3c2.9,0,5-1,6.2-3.1S519,85.1,519,80V18.5H532.8L532.8,18.5z"/>
<path class="st0" d="M491.7,18.6h13.4v62.5h-13.4V18.6z"/>
<polygon class="st0" points="145.5,24.6 145.5,46.9 166.3,46.9 166.3,53 145.5,53 145.5,75.6 168.7,75.6 168.7,81.1 131,81.1 
	131,18.9 168.7,18.9 168.7,24.6 "/>
<polygon class="st0" points="480.1,43 480.1,81.2 471,81.2 436.8,30 436.8,81.2 430.2,81.2 430.2,18.5 445.3,18.5 474.2,61 
	474.2,56.8 474.2,56.8 474.2,18.7 480.1,18.7 "/>
<path class="st0" d="M0,18.8h14.6l14.9,41.7l14.3-41.7h14.5v62.4H44.8V33.5L28.1,81.2h-5.5L6.2,33.5v47.6H0V18.8z"/>
<path class="st0" d="M89.4,19h9.8l21.4,62.2h-13.8l-6.4-19.1H80.5l-6.7,19.1h-6.1L89.4,19z M98.5,55.7l-8.1-23l-7.8,23H98.5z"/>
<path class="st0" d="M210.7,57.9l-17.1-38.8h14.1l14.1,31.1l13.8-31.1h6.4l-17.5,37.7v24.4h-13.8V57.9L210.7,57.9z"/>
<path class="st0" d="M258.2,19h9.9l21.4,62.2h-13.8l-6.4-19.1h-19.9l-6.6,19.1h-6.1L258.2,19z M267.2,55.7l-8-23l-7.8,23H267.2z"/>
<path class="st0" d="M298.9,18.8h14.6l14.9,41.7l14.3-41.7h14.5v62.4h-13.5V33.5L327,81.2h-5.5l-16.3-47.6v47.6H299L298.9,18.8
	L298.9,18.8z"/>
<path class="st0" d="M388.3,19h9.9l21.4,62.2h-13.8l-6.4-19.1h-19.9l-6.6,19.1h-6.1L388.3,19z M397.4,55.7l-8-23l-7.8,23H397.4z"/>
<path class="st0" d="M564,18.9h9.8l21.4,62.2h-13.8L575,62h-19.9l-6.7,19.1h-6.1L564,18.9z M573.1,55.7l-8-23l-7.8,23H573.1z"/>
</svg>
