<?xml version="1.0" encoding="utf-8"?>
<!-- Generator: Adobe Illustrator 25.4.1, SVG Export Plug-In . SVG Version: 6.00 Build 0)  -->
<svg version="1.1" id="Livello_1" xmlns="http://www.w3.org/2000/svg" xmlns:xlink="http://www.w3.org/1999/xlink" x="0px" y="0px"
	 viewBox="0 0 595.28 81.16" style="enable-background:new 0 0 595.28 81.16;" xml:space="preserve">
<style type="text/css">
	.st0{fill:#FFFFFF;}
</style>
<path class="st0" d="M532.84,0v64.47c0,2.39-0.45,4.6-1.36,6.63c-0.91,2.02-2.18,3.78-3.82,5.27c-1.64,1.48-3.56,2.66-5.77,3.51
	c-2.22,0.86-4.59,1.28-7.14,1.28c-1.09,0-2.04-0.04-2.85-0.12c-0.8-0.07-1.56-0.22-2.26-0.43c-0.71-0.2-1.39-0.49-2.07-0.86
	s-1.46-0.84-2.34-1.4v-4.21c1.15,0.42,2.24,0.72,3.28,0.9c1.04,0.18,1.92,0.28,2.65,0.28c2.91,0,4.98-1.04,6.2-3.12
	c1.22-2.08,1.83-5.7,1.83-10.85l-0.16-61.34h13.81V0z"/>
<path class="st0" d="M491.69,0.16h13.41v62.48h-13.41V0.16z"/>
<g>
	<polygon class="st0" points="145.5,6.12 145.5,28.41 166.26,28.41 166.26,34.51 145.5,34.51 145.5,57.1 168.72,57.1 168.72,62.66 
		130.96,62.66 130.96,0.44 168.72,0.44 168.72,6.12 	"/>
</g>
<polygon class="st0" points="480.15,24.54 480.15,62.68 471.01,62.68 436.8,11.5 436.8,62.68 430.17,62.68 430.17,0.04 445.28,0.04 
	474.22,42.55 474.22,38.36 474.2,38.34 474.2,0.19 480.13,0.19 480.13,24.52 "/>
<path class="st0" d="M0,0.29h14.62l14.93,41.67L43.86,0.29h14.46v62.39H44.8V15.06L28.07,62.68h-5.55L6.18,15.06v47.62H0V0.29z"/>
<path class="st0" d="M89.44,0.52h9.85l21.42,62.16h-13.84l-6.41-19.08H80.53l-6.65,19.08h-6.1L89.44,0.52z M98.51,37.27l-8.05-22.99
	l-7.82,22.99H98.51z"/>
<path class="st0" d="M210.71,39.38L193.66,0.6h14.07l14.07,31.12L235.57,0.6h6.41l-17.51,37.68v24.39h-13.76V39.38z"/>
<path class="st0" d="M258.17,0.52h9.85l21.42,62.16H275.6l-6.41-19.08h-19.94l-6.65,19.08h-6.1L258.17,0.52z M267.24,37.27
	l-8.05-22.99l-7.82,22.99H267.24z"/>
<path class="st0" d="M298.9,0.29h14.62l14.93,41.67l14.31-41.67h14.46v62.39H343.7V15.06l-16.73,47.62h-5.55l-16.34-47.62v47.62
	h-6.18V0.29z"/>
<path class="st0" d="M388.34,0.52h9.85l21.42,62.16h-13.84l-6.41-19.08h-19.94l-6.65,19.08h-6.1L388.34,0.52z M397.41,37.27
	l-8.05-22.99l-7.82,22.99H397.41z"/>
<path class="st0" d="M564.01,0.44h9.85l21.42,62.16h-13.84l-6.41-19.08h-19.94l-6.65,19.08h-6.1L564.01,0.44z M573.07,37.19
	l-8.05-22.99l-7.82,22.99H573.07z"/>
</svg>
